<svg width="21" height="20" viewBox="0 0 21 20" fill="none" xmlns="http://www.w3.org/2000/svg">
<path d="M2.96924 6H18.9692V19C18.9692 19.2652 18.8639 19.5196 18.6763 19.7071C18.4888 19.8946 18.2345 20 17.9692 20H3.96924C3.70402 20 3.44967 19.8946 3.26213 19.7071C3.0746 19.5196 2.96924 19.2652 2.96924 19V6ZM4.96924 8V18H16.9692V8H4.96924ZM7.96924 10H9.96924V16H7.96924V10ZM11.9692 10H13.9692V16H11.9692V10ZM5.96924 3V1C5.96924 0.734784 6.0746 0.48043 6.26213 0.292893C6.44967 0.105357 6.70402 0 6.96924 0H14.9692C15.2345 0 15.4888 0.105357 15.6763 0.292893C15.8639 0.48043 15.9692 0.734784 15.9692 1V3H20.9692V5H0.969238V3H5.96924ZM7.96924 2V3H13.9692V2H7.96924Z" fill="#212121" style="mix-blend-mode:multiply"/>
</svg>
