<svg width="18" height="17" viewBox="0 0 18 17" fill="none" xmlns="http://www.w3.org/2000/svg">
<path d="M8.99998 16.3333C8.01506 16.3333 7.03979 16.1393 6.12985 15.7624C5.21991 15.3855 4.39312 14.8331 3.69668 14.1366C3.00024 13.4402 2.44779 12.6134 2.07088 11.7035C1.69397 10.7935 1.49998 9.81825 1.49998 8.83334C1.49998 7.84842 1.69397 6.87315 2.07088 5.96321C2.44779 5.05327 3.00024 4.22647 3.69668 3.53004C4.39312 2.8336 5.21991 2.28115 6.12985 1.90424C7.03979 1.52733 8.01506 1.33334 8.99998 1.33334C10.9891 1.33334 12.8968 2.12351 14.3033 3.53004C15.7098 4.93656 16.5 6.84421 16.5 8.83334C16.5 10.8225 15.7098 12.7301 14.3033 14.1366C12.8968 15.5432 10.9891 16.3333 8.99998 16.3333ZM8.99998 14.6667C9.76602 14.6667 10.5246 14.5158 11.2323 14.2226C11.94 13.9295 12.5831 13.4998 13.1248 12.9581C13.6664 12.4165 14.0961 11.7734 14.3893 11.0657C14.6824 10.3579 14.8333 9.59938 14.8333 8.83334C14.8333 8.06729 14.6824 7.30875 14.3893 6.60102C14.0961 5.89328 13.6664 5.25022 13.1248 4.70855C12.5831 4.16687 11.94 3.73719 11.2323 3.44404C10.5246 3.15089 9.76602 3 8.99998 3C7.45288 3 5.96915 3.61458 4.87519 4.70855C3.78123 5.80251 3.16664 7.28624 3.16664 8.83334C3.16664 10.3804 3.78123 11.8642 4.87519 12.9581C5.96915 14.0521 7.45288 14.6667 8.99998 14.6667ZM9.83331 8.83334H12.3333V10.5H8.16664V4.66667H9.83331V8.83334ZM0.455811 3.235L3.40164 0.289169L4.58081 1.4675L1.63331 4.41417L0.455811 3.235ZM14.5975 0.289169L17.5441 3.235L16.3658 4.41417L13.4191 1.4675L14.5983 0.289169H14.5975Z" fill="#4F5B67"/>
</svg>
