<svg width="19" height="20" viewBox="0 0 19 20" fill="none" xmlns="http://www.w3.org/2000/svg">
<path d="M11.576 15.271L6.46596 12.484C5.97545 12.9709 5.35177 13.3017 4.67355 13.4346C3.99532 13.5676 3.29292 13.4968 2.65488 13.2311C2.01685 12.9654 1.47175 12.5168 1.08831 11.9418C0.704863 11.3668 0.500244 10.6911 0.500244 9.99999C0.500244 9.30886 0.704863 8.63319 1.08831 8.05818C1.47175 7.48317 2.01685 7.03455 2.65488 6.76889C3.29292 6.50322 3.99532 6.43241 4.67355 6.56536C5.35177 6.69832 5.97545 7.02909 6.46596 7.51599L11.576 4.72899C11.4007 3.90672 11.5273 3.04885 11.9326 2.31224C12.3378 1.57564 12.9947 1.00952 13.7831 0.717422C14.5714 0.425324 15.4386 0.426763 16.226 0.721475C17.0134 1.01619 17.6683 1.58448 18.0712 2.32243C18.474 3.06037 18.5977 3.91866 18.4197 4.74034C18.2418 5.56202 17.7739 6.29218 17.1019 6.79729C16.4298 7.3024 15.5983 7.54871 14.7596 7.49119C13.9208 7.43366 13.1308 7.07613 12.534 6.48399L7.42396 9.27099C7.52589 9.75164 7.52589 10.2483 7.42396 10.729L12.534 13.516C13.1308 12.9238 13.9208 12.5663 14.7596 12.5088C15.5983 12.4513 16.4298 12.6976 17.1019 13.2027C17.7739 13.7078 18.2418 14.438 18.4197 15.2596C18.5977 16.0813 18.474 16.9396 18.0712 17.6776C17.6683 18.4155 17.0134 18.9838 16.226 19.2785C15.4386 19.5732 14.5714 19.5747 13.7831 19.2826C12.9947 18.9905 12.3378 18.4243 11.9326 17.6877C11.5273 16.9511 11.4007 16.0933 11.576 15.271V15.271Z" fill="#212121" style="mix-blend-mode:multiply"/>
</svg>
