<svg width="12" height="12" viewBox="0 0 12 12" fill="none" xmlns="http://www.w3.org/2000/svg">
<path d="M6 5.5C6.66304 5.5 7.29893 5.76339 7.76777 6.23223C8.23661 6.70107 8.5 7.33696 8.5 8V11H3.5V8C3.5 7.33696 3.76339 6.70107 4.23223 6.23223C4.70107 5.76339 5.33696 5.5 6 5.5ZM2.644 7.003C2.56443 7.27139 2.51742 7.54838 2.504 7.828L2.5 8V11H1V8.75C0.999902 8.31879 1.15901 7.90272 1.44682 7.5816C1.73462 7.26049 2.13085 7.05694 2.5595 7.01L2.6445 7.003H2.644ZM9.356 7.003C9.80095 7.03012 10.2188 7.22598 10.5243 7.55062C10.8298 7.87526 10.9999 8.30422 11 8.75V11H9.5V8C9.5 7.6535 9.45 7.319 9.356 7.003ZM2.75 4C3.08152 4 3.39946 4.1317 3.63388 4.36612C3.8683 4.60054 4 4.91848 4 5.25C4 5.58152 3.8683 5.89946 3.63388 6.13388C3.39946 6.3683 3.08152 6.5 2.75 6.5C2.41848 6.5 2.10054 6.3683 1.86612 6.13388C1.6317 5.89946 1.5 5.58152 1.5 5.25C1.5 4.91848 1.6317 4.60054 1.86612 4.36612C2.10054 4.1317 2.41848 4 2.75 4ZM9.25 4C9.58152 4 9.89946 4.1317 10.1339 4.36612C10.3683 4.60054 10.5 4.91848 10.5 5.25C10.5 5.58152 10.3683 5.89946 10.1339 6.13388C9.89946 6.3683 9.58152 6.5 9.25 6.5C8.91848 6.5 8.60054 6.3683 8.36612 6.13388C8.1317 5.89946 8 5.58152 8 5.25C8 4.91848 8.1317 4.60054 8.36612 4.36612C8.60054 4.1317 8.91848 4 9.25 4ZM6 1C6.53043 1 7.03914 1.21071 7.41421 1.58579C7.78929 1.96086 8 2.46957 8 3C8 3.53043 7.78929 4.03914 7.41421 4.41421C7.03914 4.78929 6.53043 5 6 5C5.46957 5 4.96086 4.78929 4.58579 4.41421C4.21071 4.03914 4 3.53043 4 3C4 2.46957 4.21071 1.96086 4.58579 1.58579C4.96086 1.21071 5.46957 1 6 1Z" fill="#67748E"/>
</svg>
